<?xml version="1.0" encoding="utf-8"?>
<!-- Generator: Adobe Illustrator 16.0.0, SVG Export Plug-In . SVG Version: 6.00 Build 0)  -->
<!DOCTYPE svg PUBLIC "-//W3C//DTD SVG 1.1//EN" "http://www.w3.org/Graphics/SVG/1.1/DTD/svg11.dtd">
<svg version="1.1" id="Layer_1" xmlns="http://www.w3.org/2000/svg" xmlns:xlink="http://www.w3.org/1999/xlink" x="0px" y="0px"
	 width="100px" height="100px" viewBox="0 0 100 100" enable-background="new 0 0 100 100" xml:space="preserve">
<g>
	<path fill="#E8514C" d="M49.359,19.133c8.731,0,16.618,3.599,22.272,9.389l11.839-11.721c-8.674-8.84-20.749-14.33-34.111-14.33
		c-13.412,0-25.526,5.532-34.206,14.429l11.8,11.762C32.617,22.791,40.559,19.133,49.359,19.133z"/>
	<path fill="#E8514C" d="M49.359,81.401c-8.699,0-16.561-3.572-22.21-9.324L15.349,83.839c8.666,8.779,20.701,14.224,34.011,14.224
		c13.262,0,25.256-5.402,33.916-14.123l-11.84-11.721C65.797,77.89,57.988,81.401,49.359,81.401z"/>
	<path fill="#E8514C" d="M80.479,50.214c0,5.046-1.208,9.807-3.338,14.02l14.876,7.503c3.27-6.47,5.123-13.776,5.123-21.522
		c0-7.617-1.79-14.813-4.961-21.204l-14.875,7.503C79.333,40.648,80.479,45.297,80.479,50.214z"/>
	<path fill="#E8514C" d="M18.21,50.214c0-5.042,1.206-9.799,3.333-14.012L6.693,28.649C3.41,35.13,1.548,42.452,1.548,50.214
		c0,7.89,1.923,15.324,5.308,21.883l14.851-7.552C19.477,60.254,18.21,55.384,18.21,50.214z"/>
	<path fill="#E8514C" d="M63.002,43.868c-0.707-1.484-1.641-2.835-2.766-4.006c-2.76-2.868-6.631-4.66-10.924-4.66
		c-4.384,0-8.321,1.871-11.091,4.844c-0.984,1.057-1.818,2.251-2.471,3.556c-1.021,2.04-1.609,4.335-1.609,6.771
		c0,2.563,0.642,4.976,1.764,7.093c0.672,1.267,1.52,2.423,2.507,3.446c2.759,2.853,6.619,4.632,10.9,4.632
		c4.191,0,7.986-1.7,10.732-4.448c1.131-1.134,2.072-2.451,2.803-3.896c1.037-2.054,1.635-4.368,1.635-6.827
		C64.482,48.042,63.941,45.842,63.002,43.868z"/>
</g>
</svg>
